<mxfile host="app.diagrams.net" agent="Mozilla/5.0 (Windows NT 10.0; Win64; x64) AppleWebKit/537.36 (KHTML, like Gecko) Chrome/129.0.0.0 Safari/537.36" version="24.7.17">
  <diagram name="Web App Flow" id="5koPVLizBUn2WAeZhwXC">
    <mxGraphModel dx="1730" dy="512" grid="1" gridSize="10" guides="1" tooltips="1" connect="1" arrows="1" fold="1" page="1" pageScale="1" pageWidth="850" pageHeight="1100" math="0" shadow="0">
      <root>
        <mxCell id="0" />
        <mxCell id="1" parent="0" />
        <mxCell id="LMRkZTRJpyOu7DOPCksZ-88" value="Login/Register" style="rounded=1;whiteSpace=wrap;html=1;" vertex="1" parent="1">
          <mxGeometry x="150" y="60" width="160" height="70" as="geometry" />
        </mxCell>
        <mxCell id="LMRkZTRJpyOu7DOPCksZ-89" value="Valid Credentials?" style="diamond;whiteSpace=wrap;html=1;" vertex="1" parent="1">
          <mxGeometry x="150" y="180" width="160" height="70" as="geometry" />
        </mxCell>
        <mxCell id="LMRkZTRJpyOu7DOPCksZ-90" value="Error: Invalid Login" style="rounded=1;whiteSpace=wrap;html=1;strokeColor=red;" vertex="1" parent="1">
          <mxGeometry x="-130" y="290" width="160" height="70" as="geometry" />
        </mxCell>
        <mxCell id="LMRkZTRJpyOu7DOPCksZ-113" style="edgeStyle=orthogonalEdgeStyle;rounded=0;orthogonalLoop=1;jettySize=auto;html=1;entryX=0.5;entryY=0;entryDx=0;entryDy=0;" edge="1" parent="1" source="LMRkZTRJpyOu7DOPCksZ-91" target="LMRkZTRJpyOu7DOPCksZ-97">
          <mxGeometry relative="1" as="geometry" />
        </mxCell>
        <mxCell id="LMRkZTRJpyOu7DOPCksZ-114" style="edgeStyle=orthogonalEdgeStyle;rounded=0;orthogonalLoop=1;jettySize=auto;html=1;entryX=0.5;entryY=0;entryDx=0;entryDy=0;" edge="1" parent="1" source="LMRkZTRJpyOu7DOPCksZ-91" target="LMRkZTRJpyOu7DOPCksZ-98">
          <mxGeometry relative="1" as="geometry" />
        </mxCell>
        <mxCell id="LMRkZTRJpyOu7DOPCksZ-91" value="Access Dashboard" style="rounded=1;whiteSpace=wrap;html=1;" vertex="1" parent="1">
          <mxGeometry x="425" y="230" width="160" height="70" as="geometry" />
        </mxCell>
        <mxCell id="LMRkZTRJpyOu7DOPCksZ-92" value="Forgot Password?" style="rounded=1;whiteSpace=wrap;html=1;strokeColor=orange;" vertex="1" parent="1">
          <mxGeometry x="-70" y="470" width="160" height="70" as="geometry" />
        </mxCell>
        <mxCell id="LMRkZTRJpyOu7DOPCksZ-93" value="" style="edgeStyle=orthogonalEdgeStyle;rounded=0;" edge="1" parent="1" source="LMRkZTRJpyOu7DOPCksZ-88" target="LMRkZTRJpyOu7DOPCksZ-89">
          <mxGeometry relative="1" as="geometry" />
        </mxCell>
        <mxCell id="LMRkZTRJpyOu7DOPCksZ-94" value="" style="edgeStyle=orthogonalEdgeStyle;rounded=0;" edge="1" parent="1" source="LMRkZTRJpyOu7DOPCksZ-89" target="LMRkZTRJpyOu7DOPCksZ-90">
          <mxGeometry relative="1" as="geometry" />
        </mxCell>
        <mxCell id="LMRkZTRJpyOu7DOPCksZ-95" value="" style="edgeStyle=orthogonalEdgeStyle;rounded=0;" edge="1" parent="1" source="LMRkZTRJpyOu7DOPCksZ-89" target="LMRkZTRJpyOu7DOPCksZ-91">
          <mxGeometry relative="1" as="geometry">
            <Array as="points">
              <mxPoint x="505" y="195" />
            </Array>
          </mxGeometry>
        </mxCell>
        <mxCell id="LMRkZTRJpyOu7DOPCksZ-96" value="" style="edgeStyle=orthogonalEdgeStyle;rounded=0;" edge="1" parent="1" source="LMRkZTRJpyOu7DOPCksZ-90" target="LMRkZTRJpyOu7DOPCksZ-92">
          <mxGeometry relative="1" as="geometry" />
        </mxCell>
        <mxCell id="LMRkZTRJpyOu7DOPCksZ-115" style="edgeStyle=orthogonalEdgeStyle;rounded=0;orthogonalLoop=1;jettySize=auto;html=1;entryX=0;entryY=0.5;entryDx=0;entryDy=0;" edge="1" parent="1" source="LMRkZTRJpyOu7DOPCksZ-97" target="LMRkZTRJpyOu7DOPCksZ-98">
          <mxGeometry relative="1" as="geometry" />
        </mxCell>
        <mxCell id="LMRkZTRJpyOu7DOPCksZ-116" style="edgeStyle=orthogonalEdgeStyle;rounded=0;orthogonalLoop=1;jettySize=auto;html=1;" edge="1" parent="1" source="LMRkZTRJpyOu7DOPCksZ-97" target="LMRkZTRJpyOu7DOPCksZ-105">
          <mxGeometry relative="1" as="geometry" />
        </mxCell>
        <mxCell id="LMRkZTRJpyOu7DOPCksZ-97" value="Create Group" style="rounded=1;whiteSpace=wrap;html=1;" vertex="1" parent="1">
          <mxGeometry x="250" y="390" width="160" height="70" as="geometry" />
        </mxCell>
        <mxCell id="LMRkZTRJpyOu7DOPCksZ-98" value="Upload Document" style="rounded=1;whiteSpace=wrap;html=1;" vertex="1" parent="1">
          <mxGeometry x="600" y="390" width="160" height="70" as="geometry" />
        </mxCell>
        <mxCell id="LMRkZTRJpyOu7DOPCksZ-99" value="Valid File Format?" style="diamond;whiteSpace=wrap;html=1;" vertex="1" parent="1">
          <mxGeometry x="600" y="580" width="160" height="70" as="geometry" />
        </mxCell>
        <mxCell id="LMRkZTRJpyOu7DOPCksZ-100" value="Error: Invalid File" style="rounded=1;whiteSpace=wrap;html=1;strokeColor=red;" vertex="1" parent="1">
          <mxGeometry x="850" y="580" width="160" height="70" as="geometry" />
        </mxCell>
        <mxCell id="LMRkZTRJpyOu7DOPCksZ-117" style="edgeStyle=orthogonalEdgeStyle;rounded=0;orthogonalLoop=1;jettySize=auto;html=1;entryX=1;entryY=0.5;entryDx=0;entryDy=0;" edge="1" parent="1" source="LMRkZTRJpyOu7DOPCksZ-101" target="LMRkZTRJpyOu7DOPCksZ-106">
          <mxGeometry relative="1" as="geometry" />
        </mxCell>
        <mxCell id="LMRkZTRJpyOu7DOPCksZ-101" value="Upload Successful" style="rounded=1;whiteSpace=wrap;html=1;" vertex="1" parent="1">
          <mxGeometry x="600" y="800" width="160" height="70" as="geometry" />
        </mxCell>
        <mxCell id="LMRkZTRJpyOu7DOPCksZ-102" value="" style="edgeStyle=orthogonalEdgeStyle;rounded=0;exitX=0.5;exitY=1;exitDx=0;exitDy=0;" edge="1" parent="1" source="LMRkZTRJpyOu7DOPCksZ-98" target="LMRkZTRJpyOu7DOPCksZ-99">
          <mxGeometry relative="1" as="geometry" />
        </mxCell>
        <mxCell id="LMRkZTRJpyOu7DOPCksZ-103" value="" style="edgeStyle=orthogonalEdgeStyle;rounded=0;" edge="1" parent="1" source="LMRkZTRJpyOu7DOPCksZ-99" target="LMRkZTRJpyOu7DOPCksZ-100">
          <mxGeometry relative="1" as="geometry" />
        </mxCell>
        <mxCell id="LMRkZTRJpyOu7DOPCksZ-104" value="" style="edgeStyle=orthogonalEdgeStyle;rounded=0;" edge="1" parent="1" source="LMRkZTRJpyOu7DOPCksZ-99" target="LMRkZTRJpyOu7DOPCksZ-101">
          <mxGeometry relative="1" as="geometry" />
        </mxCell>
        <mxCell id="LMRkZTRJpyOu7DOPCksZ-105" value="Invite Family Member" style="rounded=1;whiteSpace=wrap;html=1;" vertex="1" parent="1">
          <mxGeometry x="250" y="530" width="160" height="70" as="geometry" />
        </mxCell>
        <mxCell id="LMRkZTRJpyOu7DOPCksZ-106" value="Member: View Only?" style="diamond;whiteSpace=wrap;html=1;" vertex="1" parent="1">
          <mxGeometry x="250" y="700" width="160" height="70" as="geometry" />
        </mxCell>
        <mxCell id="LMRkZTRJpyOu7DOPCksZ-107" value="Error: Unauthorized Access" style="rounded=1;whiteSpace=wrap;html=1;strokeColor=red;" vertex="1" parent="1">
          <mxGeometry x="-40" y="700" width="160" height="70" as="geometry" />
        </mxCell>
        <mxCell id="LMRkZTRJpyOu7DOPCksZ-108" value="Document Viewed" style="rounded=1;whiteSpace=wrap;html=1;" vertex="1" parent="1">
          <mxGeometry x="250" y="840" width="160" height="70" as="geometry" />
        </mxCell>
        <mxCell id="LMRkZTRJpyOu7DOPCksZ-109" value="" style="edgeStyle=orthogonalEdgeStyle;rounded=0;" edge="1" parent="1" source="LMRkZTRJpyOu7DOPCksZ-105" target="LMRkZTRJpyOu7DOPCksZ-106">
          <mxGeometry relative="1" as="geometry" />
        </mxCell>
        <mxCell id="LMRkZTRJpyOu7DOPCksZ-110" value="" style="edgeStyle=orthogonalEdgeStyle;rounded=0;" edge="1" parent="1" source="LMRkZTRJpyOu7DOPCksZ-106" target="LMRkZTRJpyOu7DOPCksZ-107">
          <mxGeometry relative="1" as="geometry" />
        </mxCell>
        <mxCell id="LMRkZTRJpyOu7DOPCksZ-111" value="" style="edgeStyle=orthogonalEdgeStyle;rounded=0;" edge="1" parent="1" source="LMRkZTRJpyOu7DOPCksZ-106" target="LMRkZTRJpyOu7DOPCksZ-108">
          <mxGeometry relative="1" as="geometry" />
        </mxCell>
        <mxCell id="LMRkZTRJpyOu7DOPCksZ-118" value="CHECK LOGIN CREDENTIALS VALID OR NOT ?" style="text;html=1;align=center;verticalAlign=middle;whiteSpace=wrap;rounded=0;" vertex="1" parent="1">
          <mxGeometry x="310" y="150" width="220" height="40" as="geometry" />
        </mxCell>
        <mxCell id="LMRkZTRJpyOu7DOPCksZ-119" value="AFTER SUCCESSFULLY LOGIN VIEW DASHBOARD AND ALL GROUP" style="text;html=1;align=center;verticalAlign=middle;whiteSpace=wrap;rounded=0;" vertex="1" parent="1">
          <mxGeometry x="550" y="190" width="230" height="50" as="geometry" />
        </mxCell>
        <mxCell id="LMRkZTRJpyOu7DOPCksZ-120" value="USER CREATE NEW GROUP&amp;nbsp;" style="text;html=1;align=center;verticalAlign=middle;whiteSpace=wrap;rounded=0;" vertex="1" parent="1">
          <mxGeometry x="160" y="340" width="170" height="50" as="geometry" />
        </mxCell>
        <mxCell id="LMRkZTRJpyOu7DOPCksZ-122" value="USER CAN UPLOAD DOCUMENT IN ALREADY CREATED GROUP" style="text;html=1;align=center;verticalAlign=middle;whiteSpace=wrap;rounded=0;" vertex="1" parent="1">
          <mxGeometry x="700" y="330" width="200" height="50" as="geometry" />
        </mxCell>
        <mxCell id="LMRkZTRJpyOu7DOPCksZ-123" value="AFTER CREATED GROUP USER CAN UPLOAD DOCUMENT" style="text;html=1;align=center;verticalAlign=middle;whiteSpace=wrap;rounded=0;" vertex="1" parent="1">
          <mxGeometry x="420" y="440" width="160" height="50" as="geometry" />
        </mxCell>
        <mxCell id="LMRkZTRJpyOu7DOPCksZ-124" value="AFTER CREATE GROUP USER CAN INVITE FAMILY MEMBER" style="text;html=1;align=center;verticalAlign=middle;whiteSpace=wrap;rounded=0;" vertex="1" parent="1">
          <mxGeometry x="410" y="580" width="90" height="120" as="geometry" />
        </mxCell>
        <mxCell id="LMRkZTRJpyOu7DOPCksZ-125" value="CHECK FILE FORMAT IF VALID THEN CAN UPLOAD OTHERWISE SHOW ERROR" style="text;html=1;align=center;verticalAlign=middle;whiteSpace=wrap;rounded=0;" vertex="1" parent="1">
          <mxGeometry x="690" y="500" width="250" height="90" as="geometry" />
        </mxCell>
      </root>
    </mxGraphModel>
  </diagram>
</mxfile>
